<?xml version="1.0" encoding="UTF-8"?>
<svg xmlns="http://www.w3.org/2000/svg" xmlns:xlink="http://www.w3.org/1999/xlink" width="32px" height="20px" viewBox="0 0 31 20" version="1.1">
<g id="surface1">
<path style=" stroke:none;fill-rule:nonzero;fill:rgb(0%,0%,0%);fill-opacity:1;" d="M 12.511719 8.941406 C 12.511719 8.941406 15.445312 8.71875 15.445312 5.214844 C 15.445312 1.710938 13.046875 0 10.003906 0 L 0.00390625 0 L 0.00390625 19.585938 L 10.003906 19.585938 C 10.003906 19.585938 16.113281 19.78125 16.113281 13.804688 C 16.113281 13.804688 16.378906 8.941406 12.511719 8.941406 Z M 9.285156 3.480469 L 10.003906 3.480469 C 10.003906 3.480469 11.363281 3.480469 11.363281 5.519531 C 11.363281 7.554688 10.566406 7.851562 9.660156 7.851562 L 4.410156 7.851562 L 4.410156 3.480469 Z M 9.722656 16.105469 L 4.410156 16.105469 L 4.410156 10.871094 L 10.003906 10.871094 C 10.003906 10.871094 12.03125 10.84375 12.03125 13.558594 C 12.03125 15.851562 10.519531 16.085938 9.722656 16.105469 Z M 24.253906 4.984375 C 16.863281 4.984375 16.871094 12.507812 16.871094 12.507812 C 16.871094 12.507812 16.363281 19.996094 24.253906 19.996094 C 24.253906 19.996094 30.832031 20.378906 30.832031 14.785156 L 27.449219 14.785156 C 27.449219 14.785156 27.5625 16.890625 24.367188 16.890625 C 24.367188 16.890625 20.984375 17.121094 20.984375 13.484375 L 30.945312 13.484375 C 30.945312 13.484375 32.035156 4.984375 24.253906 4.984375 Z M 20.949219 10.871094 C 20.949219 10.871094 21.359375 7.851562 24.328125 7.851562 C 27.300781 7.851562 27.261719 10.871094 27.261719 10.871094 Z M 28.050781 3.566406 L 20.121094 3.566406 L 20.121094 1.152344 L 28.050781 1.152344 Z M 28.050781 3.566406 "/>
</g>
</svg>
